<?xml version="1.0" encoding="utf-8"?><!DOCTYPE svg PUBLIC "-//W3C//DTD SVG 1.1//EN" "http://www.w3.org/Graphics/SVG/1.1/DTD/svg11.dtd"><svg version="1.1" xmlns="http://www.w3.org/2000/svg" xmlns:xlink="http://www.w3.org/1999/xlink" width="42" height="32" viewBox="0 0 42 32" data-code="57345" data-tags="laptop,computer,screen"><g fill="#444" transform="scale(0.03125 0.03125)"><path d="M112 832c8.832 0 16-7.168 16-16v-752c0-19.136 12.864-32 32-32h1024c18.24 0 32 14.976 32 34.848v749.152c0 8.832 7.168 16 16 16s16-7.168 16-16v-749.152c0-37.504-28.096-66.848-64-66.848h-1024c-37.088 0-64 26.912-64 64v752c0 8.832 7.168 16 16 16zM208 96c-8.832 0-16 7.168-16 16v704c0 8.832 7.168 16 16 16h928c8.832 0 16-7.168 16-16v-704c0-8.832-7.168-16-16-16h-928zM1120 800h-896v-672h896v672zM1328 896h-1312c-8.832 0-16 7.168-16 16v37.6c0 38.336 45.056 74.4 80 74.4h1184c36.64 0 80-43.36 80-80v-32c0-8.832-7.168-16-16-16zM1312 944c0 18.848-29.152 48-48 48h-1184c-20.192 0-48-24.576-48-42.4v-21.6h1280v16z" /></g></svg>