<?xml version="1.0" encoding="utf-8"?><!DOCTYPE svg PUBLIC "-//W3C//DTD SVG 1.1//EN" "http://www.w3.org/Graphics/SVG/1.1/DTD/svg11.dtd"><svg version="1.1" xmlns="http://www.w3.org/2000/svg" xmlns:xlink="http://www.w3.org/1999/xlink" width="24" height="24" viewBox="0 0 24 24" data-tags="multiple_stop"><g fill="#444" transform="scale(0.0234375 0.0234375)"><path d="M726 170l170 172-170 170v-128h-172v-86h172v-128zM426 298q-16 0-29 13t-13 31q0 16 13 29t29 13q18 0 31-13t13-29q0-18-13-31t-31-13zM256 298q-18 0-30 13t-12 31q0 16 12 29t30 13 30-13 12-29q0-18-12-31t-30-13zM298 726h172v-86h-172v-128l-170 170 170 172v-128zM598 726q16 0 29-13t13-31q0-16-13-29t-29-13q-18 0-31 13t-13 29q0 18 13 31t31 13zM768 726q18 0 30-13t12-31q0-16-12-29t-30-13-30 13-12 29q0 18 12 31t30 13z" /></g></svg>