<?xml version="1.0" encoding="utf-8"?><!DOCTYPE svg PUBLIC "-//W3C//DTD SVG 1.1//EN" "http://www.w3.org/Graphics/SVG/1.1/DTD/svg11.dtd"><svg version="1.1" xmlns="http://www.w3.org/2000/svg" xmlns:xlink="http://www.w3.org/1999/xlink" width="48" height="48" viewBox="0 0 48 48" data-tags="monitor,screen,desktop,pc"><g fill="#444" transform="scale(0.046875 0.046875)"><path d="M362.666 832c23.466 0 42.666 19.2 42.666 42.666s-19.2 42.666-42.666 42.666l-160 0.002c-29.44 0-53.332 23.892-53.332 53.332s23.892 53.334 53.332 53.334h597.334c29.44 0 53.334-23.894 53.334-53.334s-23.894-53.332-53.334-53.332h-160c-23.466 0-42.666-19.2-42.666-42.666s19.2-42.666 42.666-42.666h277.334c47.146 0 85.334-38.186 85.334-85.334l-0.002-661.334c0-47.146-38.186-85.334-85.334-85.334h-831.998c-47.148 0-85.334 38.186-85.334 85.334v661.334c0 47.146 38.186 85.334 85.334 85.334l277.332-0.002zM448 672c0-29.44 23.894-53.334 53.334-53.334s53.334 23.894 53.334 53.334-23.894 53.334-53.334 53.334-53.334-23.894-53.334-53.334zM153.6 106.666h695.466c26.028 0 46.934 20.908 46.934 46.934v332.8c0 26.026-20.906 46.934-46.934 46.934h-695.466c-26.026 0-46.934-20.908-46.934-46.934v-332.8c0-26.026 20.908-46.934 46.934-46.934z" /></g></svg>