<?xml version="1.0" encoding="utf-8"?><!DOCTYPE svg PUBLIC "-//W3C//DTD SVG 1.1//EN" "http://www.w3.org/Graphics/SVG/1.1/DTD/svg11.dtd"><svg version="1.1" xmlns="http://www.w3.org/2000/svg" xmlns:xlink="http://www.w3.org/1999/xlink" width="24" height="24" viewBox="0 0 24 24" data-tags="stop_screen_share"><g fill="#444" transform="scale(0.0234375 0.0234375)"><path d="M298 640q58-80 156-104l-68-68q-64 62-88 172zM102 74l842 842-54 54-116-116h-774v-86h170q-36 0-60-24t-24-60v-428q0-38 28-62l-66-66zM938 684q0 50-44 74l-236-236 68-64-172-158v90q-4 2-11 2t-11 2l-224-222h546q36 0 60 24t24 60v428zM906 768h118v86h-34z" /></g></svg>