<?xml version="1.0" encoding="utf-8"?><!DOCTYPE svg PUBLIC "-//W3C//DTD SVG 1.1//EN" "http://www.w3.org/Graphics/SVG/1.1/DTD/svg11.dtd"><svg version="1.1" xmlns="http://www.w3.org/2000/svg" xmlns:xlink="http://www.w3.org/1999/xlink" width="24" height="24" viewBox="0 0 24 24" data-tags="screen_search_desktop"><g fill="#444" transform="scale(0.0234375 0.0234375)"><path d="M410 716h204v78h-204v-78zM854 768q34 0 59-25t25-61v-426q0-36-25-61t-59-25h-684q-34 0-59 25t-25 61v426q0 36 25 61t59 25h-170v86h1024v-86h-170zM170 682v-426h684v428zM388 424q0-32 23-55t57-23q32 0 56 23t24 55q0 34-24 57t-56 23q-34 0-57-23t-23-57zM688 606l-106-106q22-34 22-76 0-38-18-69t-49-49-69-18-69 18-50 49-19 69 19 69 50 50 69 19q40 0 74-22l106 106zM0 0h1024v1024h-1024v-1024z" /></g></svg>