<?xml version="1.0" encoding="utf-8"?><!DOCTYPE svg PUBLIC "-//W3C//DTD SVG 1.1//EN" "http://www.w3.org/Graphics/SVG/1.1/DTD/svg11.dtd"><svg version="1.1" xmlns="http://www.w3.org/2000/svg" xmlns:xlink="http://www.w3.org/1999/xlink" width="20" height="20" viewBox="0 0 20 20" data-tags="hand-stop"><g fill="#444" transform="scale(0.01953125 0.01953125)"><path d="M870.4 819.2c0 113.108-91.692 204.8-204.8 204.8v0h-307.2c-0 0-0 0-0.001 0-113.108 0-204.8-91.692-204.8-204.8 0-0.18 0-0.36 0.001-0.54l-0 0.028v-613.888c0-28.277 22.923-51.2 51.2-51.2v0c28.277 0 51.2 22.923 51.2 51.2v0 307.2h51.2v-409.6c0-28.277 22.923-51.2 51.2-51.2v0c28.277 0 51.2 22.923 51.2 51.2v0 409.6h51.2v-460.8c0-28.277 22.923-51.2 51.2-51.2s51.2 22.923 51.2 51.2v0 460.8h51.2v-409.6c0-28.277 22.923-51.2 51.2-51.2v0c28.277 0 51.2 22.923 51.2 51.2v0 665.6h51.2v-307.2c0-28.277 22.923-51.2 51.2-51.2v0h51.2v409.6z" /></g></svg>