<?xml version="1.0" encoding="utf-8"?><!DOCTYPE svg PUBLIC "-//W3C//DTD SVG 1.1//EN" "http://www.w3.org/Graphics/SVG/1.1/DTD/svg11.dtd"><svg version="1.1" xmlns="http://www.w3.org/2000/svg" xmlns:xlink="http://www.w3.org/1999/xlink" width="48" height="48" viewBox="0 0 48 48" data-tags="laptop,notebook"><g fill="#444" transform="scale(0.046875 0.046875)"><path d="M917.334 640v-512c0-47.146-38.186-85.334-85.334-85.334l-640 0c-47.146 0-85.334 38.188-85.334 85.334v512l-106.666 213.334v42.666c0 47.146 38.186 85.334 85.334 85.334h853.334c47.146 0 85.334-38.186 85.334-85.334v-42.666l-106.668-213.334zM260.266 149.334h503.466c26.028 0 46.934 20.906 46.934 46.932v332.8c0 26.026-20.906 46.934-46.934 46.934h-503.466c-26.026 0-46.934-20.906-46.934-46.934l0.002-332.8c0-26.026 20.906-46.932 46.932-46.932zM384 768h256l21.334 85.334h-298.668l21.334-85.334z" /></g></svg>