<?xml version="1.0" encoding="utf-8"?><!DOCTYPE svg PUBLIC "-//W3C//DTD SVG 1.1//EN" "http://www.w3.org/Graphics/SVG/1.1/DTD/svg11.dtd"><svg version="1.1" xmlns="http://www.w3.org/2000/svg" xmlns:xlink="http://www.w3.org/1999/xlink" width="24" height="28" viewBox="0 0 24 28" data-code="61606" data-tags="hand-o-up"><g fill="#444" transform="scale(0.02734375 0.02734375)"><path d="M731.429 914.286c0-20-16.571-36.571-36.571-36.571s-36.571 16.571-36.571 36.571 16.571 36.571 36.571 36.571 36.571-16.571 36.571-36.571zM804.571 477.714c0-64.571-26.286-108-95.429-108-10.857 0-21.714 1.143-32 2.857-13.143-24-45.714-37.143-72-37.143-13.714 0-27.429 3.429-39.429 10.286-18.286-19.429-41.143-30.286-68-30.286-18.286 0-45.143 8-58.857 20v-189.143c0-39.429-33.714-73.143-73.143-73.143-38.857 0-73.143 34.857-73.143 73.143v329.143c-36 0-73.143-54.857-146.286-54.857-54.857 0-73.143 42.857-73.143 91.429 0 16 66.286 45.143 79.429 51.429 12.571 6.857 25.143 13.714 37.143 21.143 30.286 18.857 56.571 40.571 82.857 64 41.714 36.571 93.143 77.143 93.143 137.714v18.286h365.714v-18.286c0-100 73.143-197.714 73.143-308.571zM877.714 474.857c0 64-17.714 124.571-39.429 184-12.571 34.857-33.714 91.429-33.714 127.429v164.571c0 40.571-32.571 73.143-73.143 73.143h-365.714c-40.571 0-73.143-32.571-73.143-73.143v-164.571c0-27.429-49.143-66.286-68-82.857-23.429-20.571-46.857-40-73.714-57.143-53.143-33.143-150.857-57.714-150.857-134.286 0-90.857 49.714-164.571 146.286-164.571 25.143 0 49.714 4 73.143 12.571v-213.714c0-78.857 66.857-146.286 145.714-146.286 80 0 146.857 66.286 146.857 146.286v96.571c24 1.714 46.857 9.143 68 21.143 8-1.143 16.571-1.714 24.571-1.714 36.571 0 73.143 12 101.714 34.286 108-1.143 171.429 72.571 171.429 178.286z" /></g></svg>