<?xml version="1.0" encoding="utf-8"?><!DOCTYPE svg PUBLIC "-//W3C//DTD SVG 1.1//EN" "http://www.w3.org/Graphics/SVG/1.1/DTD/svg11.dtd"><svg version="1.1" xmlns="http://www.w3.org/2000/svg" xmlns:xlink="http://www.w3.org/1999/xlink" width="32" height="32" viewBox="0 0 32 32" data-tags="display,screen,pc,computer,desktop"><g fill="#444" transform="scale(0.03125 0.03125)"><path d="M864 159.872l-704 0.128c-17.696 0-32 14.176-32 31.872v448c0 17.696 14.304 32 32 32h704c17.696 0 32-14.304 32-32v-448c0-17.696-14.304-32-32-32zM864 640h-704v-448.128h704v448.128zM928 32h-832c-53.024 0-96 42.944-96 96v640c0 52.928 42.816 95.808 95.68 95.936h320.32v38.944l-199.744 25.952c-14.272 3.552-24.256 16.352-24.256 31.040 0 17.696 14.304 32 32 32h576c17.696 0 32-14.304 32-32 0-14.688-9.984-27.488-24.256-31.072l-199.744-25.92v-38.944h320.32c52.864-0.128 95.68-43.008 95.68-95.936v-640c0-53.056-43.008-96-96-96zM960 768c0 17.632-14.368 32-32 32h-832c-17.664 0-32-14.368-32-32v-640c0-17.664 14.336-32 32-32h832c17.632 0 32 14.336 32 32v640z" /></g></svg>