<?xml version="1.0" encoding="utf-8"?><!DOCTYPE svg PUBLIC "-//W3C//DTD SVG 1.1//EN" "http://www.w3.org/Graphics/SVG/1.1/DTD/svg11.dtd"><svg version="1.1" xmlns="http://www.w3.org/2000/svg" xmlns:xlink="http://www.w3.org/1999/xlink" width="20" height="20" viewBox="0 0 20 20" data-tags="laptop"><g fill="#444" transform="scale(0.01953125 0.01953125)"><path d="M1011.405 800.307c-12.646-18.995-89.805-134.707-89.805-134.707v-460.8c0-56.422-46.080-102.4-102.4-102.4h-614.4c-56.371 0-102.4 45.978-102.4 102.4v460.8c0 0-77.158 115.712-89.805 134.707-12.595 18.893-12.595 29.798-12.595 44.493v25.6c0 25.6 25.6 51.2 51.149 51.2h921.702c25.549 0 51.149-25.6 51.149-51.2v-25.6c0-14.694 0-25.6-12.595-44.493zM358.4 819.2l30.72-51.2h245.76l30.72 51.2h-307.2zM819.2 614.4h-614.4v-409.6h614.4v409.6z" /></g></svg>