<?xml version="1.0" encoding="utf-8"?><!DOCTYPE svg PUBLIC "-//W3C//DTD SVG 1.1//EN" "http://www.w3.org/Graphics/SVG/1.1/DTD/svg11.dtd"><svg version="1.1" xmlns="http://www.w3.org/2000/svg" xmlns:xlink="http://www.w3.org/1999/xlink" width="20" height="20" viewBox="0 0 20 20" data-tags="light-up"><g fill="#444" transform="scale(0.01953125 0.01953125)"><path d="M972.8 470.989c-9.318 0-40.909 0-50.176 0-28.314 0-51.2 18.381-51.2 41.011 0 22.579 22.886 40.909 51.2 40.909 9.318 0 40.909 0 50.176 0 28.262 0 51.2-18.278 51.2-40.909 0-22.579-22.989-41.011-51.2-41.011zM512 230.4c-156.211 0-281.6 125.389-281.6 281.6s125.389 281.6 281.6 281.6c156.16 0 281.6-125.389 281.6-281.6s-125.491-281.6-281.6-281.6zM512 716.8c-113.203 0-204.8-91.699-204.8-204.8 0-113.203 91.597-204.8 204.8-204.8 113.101 0 204.8 91.597 204.8 204.8 0 113.101-91.699 204.8-204.8 204.8zM153.6 512c0-22.579-22.989-41.011-51.2-41.011-9.472 0-41.779 0-51.2 0-28.314 0-51.2 18.381-51.2 41.011 0 22.579 22.886 40.909 51.2 40.909 9.421 0 41.728 0 51.2 0 28.211 0 51.2-18.33 51.2-40.909zM512 153.6c22.579 0 40.909-22.886 40.909-51.2 0-9.421 0-41.779 0-51.2 0-28.314-18.33-51.2-40.909-51.2-22.63 0-41.011 22.886-41.011 51.2 0 9.421 0 41.779 0 51.2 0 28.314 18.381 51.2 41.011 51.2zM512 870.4c-22.63 0-41.011 22.886-41.011 51.2 0 9.421 0 41.779 0 51.2 0 28.314 18.381 51.2 41.011 51.2 22.579 0 40.909-22.886 40.909-51.2 0-9.421 0-41.779 0-51.2 0-28.314-18.33-51.2-40.909-51.2zM889.088 192.819c20.019-20.019 23.245-49.203 7.27-65.178s-45.21-12.698-65.126 7.322c-5.53 5.478-30.362 30.31-35.84 35.789-20.019 20.019-23.245 49.203-7.27 65.178s45.21 12.698 65.178-7.322c5.478-5.53 30.259-30.31 35.789-35.789zM170.701 795.29c-5.53 5.581-30.362 30.413-35.84 35.891-20.019 20.019-23.245 49.101-7.27 65.075s45.21 12.8 65.126-7.219c5.53-5.478 30.362-30.31 35.84-35.789 20.019-20.019 23.245-49.203 7.27-65.229s-45.21-12.646-65.126 7.27zM192.768 134.912c-19.968-20.019-49.203-23.296-65.178-7.322s-12.698 45.21 7.219 65.229c5.53 5.478 30.362 30.31 35.84 35.789 20.019 20.019 49.152 23.296 65.126 7.322s12.749-45.21-7.219-65.178c-5.478-5.53-30.259-30.362-35.789-35.84zM795.341 853.299c5.53 5.478 30.362 30.31 35.84 35.789 20.019 20.019 49.152 23.194 65.126 7.322 15.974-15.974 12.749-45.21-7.27-65.178-5.478-5.478-30.31-30.31-35.789-35.789-20.019-20.019-49.203-23.296-65.229-7.322s-12.698 45.158 7.322 65.178z" /></g></svg>