<?xml version="1.0" encoding="utf-8"?><!DOCTYPE svg PUBLIC "-//W3C//DTD SVG 1.1//EN" "http://www.w3.org/Graphics/SVG/1.1/DTD/svg11.dtd"><svg version="1.1" xmlns="http://www.w3.org/2000/svg" xmlns:xlink="http://www.w3.org/1999/xlink" width="24" height="24" viewBox="0 0 24 24" data-tags="thumbs-up"><g fill="#444" transform="scale(0.0234375 0.0234375)"><path d="M834.987 370.176c-16.683-6.144-107.179-17.323-165.675-23.893 9.173-53.547 13.355-102.613 13.355-154.283 0-58.837-47.872-106.667-106.667-106.667s-106.667 47.829-106.667 106.667c0 80-28.416 116.821-68.949 157.824-23.381-30.805-60.032-51.157-101.717-51.157-70.571 0-128 57.429-128 128v256c0 70.571 57.429 128 128 128 32.213 0 61.355-12.373 83.84-32.085 2.731 2.645 4.992 6.016 8.021 8.235 40.96 31.403 156.459 66.517 249.515 66.517 80.171 0 111.275-12.501 138.795-23.595 4.437-1.749 8.832-3.584 13.483-5.248 35.584-13.013 67.243-52.352 74.069-93.867l28.416-254.891c7.381-44.245-18.901-90.667-59.819-105.557zM298.667 725.333c-23.509 0-42.667-19.115-42.667-42.667v-256c0-23.552 19.157-42.667 42.667-42.667s42.667 19.115 42.667 42.667v256c0 23.552-19.157 42.667-42.667 42.667zM781.952 718.933c-1.579 9.557-12.459 23.083-18.901 25.429-5.589 2.091-10.837 4.224-16.043 6.229-23.253 9.344-43.349 17.408-107.008 17.408-81.664 0-175.701-32.128-197.632-48.896-6.741-5.12-15.701-24.064-15.701-36.437v-212.48c0.128-2.005 2.176-27.989 30.165-55.979 38.955-38.997 97.835-97.877 97.835-222.208 0-11.733 9.6-21.333 21.333-21.333s21.333 9.6 21.333 21.333c0 60.032-6.229 116.48-20.437 183.168l-12.672 59.563 56.363-8.021c25.728 2.133 167.808 19.072 184.917 23.467 2.475 1.28 5.632 7.808 4.736 13.781l-28.288 254.976z" /></g></svg>