<?xml version="1.0" encoding="utf-8"?><!DOCTYPE svg PUBLIC "-//W3C//DTD SVG 1.1//EN" "http://www.w3.org/Graphics/SVG/1.1/DTD/svg11.dtd"><svg version="1.1" xmlns="http://www.w3.org/2000/svg" xmlns:xlink="http://www.w3.org/1999/xlink" width="24" height="24" viewBox="0 0 24 24" data-tags="thumbs-up"><g fill="#444" transform="scale(0.0234375 0.0234375)"><path d="M554.667 384c0 23.552 19.115 42.667 42.667 42.667h242.304c2.773 0.085 6.528 0.469 6.528 0.469 11.648 1.749 21.419 8.021 27.947 16.896s9.6 20.053 7.851 31.659l-58.88 383.915c-1.579 10.197-6.656 19.115-13.867 25.6-7.68 6.869-17.707 10.923-29.269 10.795h-438.613v-417.621l153.941-346.368c13.099 4.181 24.832 11.435 34.389 20.992 15.488 15.488 25.003 36.736 25.003 60.331zM640 341.333v-128c0-47.104-19.157-89.856-50.005-120.661s-73.557-50.005-120.661-50.005c-17.28 0-32.171 10.283-38.997 25.344l-170.667 384c-2.56 5.717-3.712 11.733-3.669 17.323v469.333c0 23.552 19.115 42.667 42.667 42.667h481.28c32.725 0.384 63.232-11.989 86.229-32.555 21.547-19.285 36.565-45.909 41.259-76.075l58.88-384.085c5.333-34.987-4.096-68.864-23.467-95.189s-48.939-45.355-83.84-50.645c-7.040-1.067-14.208-1.579-20.992-1.451zM298.667 896h-128c-11.776 0-22.4-4.736-30.165-12.501s-12.501-18.389-12.501-30.165v-298.667c0-11.776 4.736-22.4 12.501-30.165s18.389-12.501 30.165-12.501h128c23.552 0 42.667-19.115 42.667-42.667s-19.115-42.667-42.667-42.667h-128c-35.328 0-67.413 14.379-90.496 37.504s-37.504 55.168-37.504 90.496v298.667c0 35.328 14.379 67.413 37.504 90.496s55.168 37.504 90.496 37.504h128c23.552 0 42.667-19.115 42.667-42.667s-19.115-42.667-42.667-42.667z" /></g></svg>