<?xml version="1.0" encoding="utf-8"?><!DOCTYPE svg PUBLIC "-//W3C//DTD SVG 1.1//EN" "http://www.w3.org/Graphics/SVG/1.1/DTD/svg11.dtd"><svg version="1.1" xmlns="http://www.w3.org/2000/svg" xmlns:xlink="http://www.w3.org/1999/xlink" width="30" height="28" viewBox="0 0 30 28" data-code="61704" data-tags="desktop"><g fill="#444" transform="scale(0.02734375 0.02734375)"><path d="M1024 566.857v-475.429c0-9.714-8.571-18.286-18.286-18.286h-914.286c-9.714 0-18.286 8.571-18.286 18.286v475.429c0 9.714 8.571 18.286 18.286 18.286h914.286c9.714 0 18.286-8.571 18.286-18.286zM1097.143 91.429v621.714c0 50.286-41.143 91.429-91.429 91.429h-310.857c0 48.571 36.571 89.714 36.571 109.714s-16.571 36.571-36.571 36.571h-292.571c-20 0-36.571-16.571-36.571-36.571 0-21.143 36.571-60 36.571-109.714h-310.857c-50.286 0-91.429-41.143-91.429-91.429v-621.714c0-50.286 41.143-91.429 91.429-91.429h914.286c50.286 0 91.429 41.143 91.429 91.429z" /></g></svg>