<?xml version="1.0" encoding="utf-8"?><!DOCTYPE svg PUBLIC "-//W3C//DTD SVG 1.1//EN" "http://www.w3.org/Graphics/SVG/1.1/DTD/svg11.dtd"><svg version="1.1" xmlns="http://www.w3.org/2000/svg" xmlns:xlink="http://www.w3.org/1999/xlink" width="32" height="32" viewBox="0 0 32 32" data-tags="stats,statistics,grow,increase,up"><g fill="#444" transform="scale(0.03125 0.03125)"><path d="M191.936 160h-31.584v736h640v-30.816l-607.872-1.568-0.544-703.616zM256.352 800h160v-348l-160 160v188zM448.352 800h160v-316l-64 64-96-96v348zM640.352 800h160v-485.984l-160 160v325.984zM428.384 354.144l115.84 115.2 228.736-227.584 58.688 59.008-1.408-140.768-141.28 0.736 54.944 55.104-199.744 200.32-118.048-118.496-179.936 179.328 30.048 29.184 152.16-152.032z" /></g></svg>