<?xml version="1.0" encoding="utf-8"?><!DOCTYPE svg PUBLIC "-//W3C//DTD SVG 1.1//EN" "http://www.w3.org/Graphics/SVG/1.1/DTD/svg11.dtd"><svg version="1.1" xmlns="http://www.w3.org/2000/svg" xmlns:xlink="http://www.w3.org/1999/xlink" width="30" height="28" viewBox="0 0 30 28" data-code="61705" data-tags="laptop"><g fill="#444" transform="scale(0.02734375 0.02734375)"><path d="M237.714 731.429c-50.286 0-91.429-41.143-91.429-91.429v-402.286c0-50.286 41.143-91.429 91.429-91.429h621.714c50.286 0 91.429 41.143 91.429 91.429v402.286c0 50.286-41.143 91.429-91.429 91.429h-621.714zM219.429 237.714v402.286c0 9.714 8.571 18.286 18.286 18.286h621.714c9.714 0 18.286-8.571 18.286-18.286v-402.286c0-9.714-8.571-18.286-18.286-18.286h-621.714c-9.714 0-18.286 8.571-18.286 18.286zM1005.714 768h91.429v54.857c0 30.286-41.143 54.857-91.429 54.857h-914.286c-50.286 0-91.429-24.571-91.429-54.857v-54.857h1005.714zM594.286 822.857c5.143 0 9.143-4 9.143-9.143s-4-9.143-9.143-9.143h-91.429c-5.143 0-9.143 4-9.143 9.143s4 9.143 9.143 9.143h91.429z" /></g></svg>