<?xml version="1.0" encoding="utf-8"?><!DOCTYPE svg PUBLIC "-//W3C//DTD SVG 1.1//EN" "http://www.w3.org/Graphics/SVG/1.1/DTD/svg11.dtd"><svg version="1.1" xmlns="http://www.w3.org/2000/svg" xmlns:xlink="http://www.w3.org/1999/xlink" width="24" height="24" viewBox="0 0 24 24" data-tags="device-laptop"><g fill="#444" transform="scale(0.0234375 0.0234375)"><path d="M938.197 684.757c0.384-13.44 0.469-28.032 0.469-44.757v-384c0-70.571-57.429-128-128-128h-597.333c-70.571 0-128 57.429-128 128v384c0 16.427 0.085 31.147 0.512 44.757-48.853 9.728-85.845 52.907-85.845 104.576 0 58.795 47.872 106.667 106.667 106.667h810.667c58.795 0 106.667-47.872 106.667-106.667 0-51.669-36.949-94.805-85.803-104.576zM170.667 256c0-23.509 19.157-42.667 42.667-42.667h597.333c23.509 0 42.667 19.157 42.667 42.667v384c0 16.555-0.213 30.976-0.597 42.667h-42.069v-384c0-23.467-19.2-42.667-42.667-42.667h-512c-23.467 0-42.667 19.2-42.667 42.667v384h-41.813c-0.512-11.264-0.853-25.557-0.853-42.667v-384zM768 682.667h-512v-384h512v384zM917.333 810.667h-810.667c-11.563 0-21.333-9.771-21.333-21.333s9.771-21.333 21.333-21.333h27.264 783.403c11.563 0 21.333 9.771 21.333 21.333s-9.771 21.333-21.333 21.333z" /></g></svg>