<?xml version="1.0" encoding="utf-8"?><!DOCTYPE svg PUBLIC "-//W3C//DTD SVG 1.1//EN" "http://www.w3.org/Graphics/SVG/1.1/DTD/svg11.dtd"><svg version="1.1" xmlns="http://www.w3.org/2000/svg" xmlns:xlink="http://www.w3.org/1999/xlink" width="24" height="24" viewBox="0 0 24 24" data-tags="device-desktop"><g fill="#444" transform="scale(0.0234375 0.0234375)"><path d="M896 42.667h-768c-70.571 0-128 57.429-128 128v469.333c0 70.571 57.429 128 128 128h256v85.333h-128c-23.552 0-42.667 19.115-42.667 42.667s19.115 42.667 42.667 42.667h512c23.552 0 42.667-19.115 42.667-42.667s-19.115-42.667-42.667-42.667h-128v-85.333h256c70.571 0 128-57.429 128-128v-469.333c0-70.571-57.429-128-128-128zM597.333 853.333h-170.667v-85.333h170.667v85.333zM938.667 640c0 23.509-19.157 42.667-42.667 42.667h-768c-23.509 0-42.667-19.157-42.667-42.667v-469.333c0-23.509 19.157-42.667 42.667-42.667h768c23.509 0 42.667 19.157 42.667 42.667v469.333z" /><path d="M853.333 170.667h-682.667c-23.467 0-42.667 19.2-42.667 42.667v341.333c0 23.467 19.2 42.667 42.667 42.667h682.667c23.467 0 42.667-19.2 42.667-42.667v-341.333c0-23.467-19.2-42.667-42.667-42.667zM853.333 554.667h-682.667v-341.333h682.667v341.333z" /></g></svg>