<?xml version="1.0" encoding="utf-8"?><!DOCTYPE svg PUBLIC "-//W3C//DTD SVG 1.1//EN" "http://www.w3.org/Graphics/SVG/1.1/DTD/svg11.dtd"><svg version="1.1" xmlns="http://www.w3.org/2000/svg" xmlns:xlink="http://www.w3.org/1999/xlink" width="24" height="24" viewBox="0 0 24 24" data-tags="border_top"><g fill="#444" transform="scale(0.0234375 0.0234375)"><path d="M640 554v-84h86v84h-86zM810 896v-86h86v86h-86zM470 384v-86h84v86h-84zM640 896v-86h86v86h-86zM810 726v-86h86v86h-86zM128 128h768v86h-768v-86zM810 554v-84h86v84h-86zM810 384v-86h86v86h-86zM470 726v-86h84v86h-84zM128 384v-86h86v86h-86zM128 554v-84h86v84h-86zM128 896v-86h86v86h-86zM128 726v-86h86v86h-86zM470 896v-86h84v86h-84zM470 554v-84h84v84h-84zM298 554v-84h86v84h-86zM298 896v-86h86v86h-86z" /></g></svg>