<?xml version="1.0" encoding="utf-8"?><!DOCTYPE svg PUBLIC "-//W3C//DTD SVG 1.1//EN" "http://www.w3.org/Graphics/SVG/1.1/DTD/svg11.dtd"><svg version="1.1" xmlns="http://www.w3.org/2000/svg" xmlns:xlink="http://www.w3.org/1999/xlink" width="24" height="24" viewBox="0 0 24 24" data-tags="volume-up"><g fill="#444" transform="scale(0.0234375 0.0234375)"><path d="M712.789 439.125c-16.597-16.597-43.648-16.683-60.331 0.085-16.64 16.683-16.64 43.648 0.085 60.331 14.72 14.72 22.827 34.261 22.827 55.083 0 20.864-8.107 40.448-22.869 55.211-16.683 16.64-16.683 43.648 0 60.331 8.32 8.32 19.243 12.501 30.165 12.501s21.845-4.181 30.165-12.501c30.891-30.848 47.872-71.893 47.872-115.541s-16.981-84.651-47.915-115.499z" /><path d="M798.123 353.792c-16.683-16.597-43.648-16.64-60.331 0.085-16.64 16.683-16.64 43.691 0.085 60.331 37.504 37.419 58.155 87.211 58.197 140.245 0.043 53.163-20.651 103.125-58.24 140.715-16.683 16.683-16.683 43.648 0 60.331 8.32 8.32 19.243 12.501 30.165 12.501s21.845-4.181 30.165-12.501c53.717-53.717 83.285-125.141 83.243-201.088-0.043-75.819-29.611-147.072-83.285-200.619z" /><path d="M883.456 268.459c-16.683-16.597-43.648-16.64-60.331 0.085-16.64 16.683-16.64 43.691 0.085 60.331 60.245 60.117 93.483 140.16 93.525 225.451 0.085 85.419-33.152 165.76-93.568 226.176-16.683 16.683-16.683 43.648 0 60.331 8.32 8.32 19.243 12.501 30.165 12.501s21.845-4.181 30.165-12.501c76.544-76.544 118.656-178.347 118.571-286.592-0.043-108.075-42.197-209.579-118.613-285.781z" /><path d="M517.888 248.491c-19.157 0-38.613 6.485-57.856 19.328l-114.048 76.032c-32.085 21.419-94.080 40.149-132.651 40.149-70.571 0-128 57.429-128 128v85.333c0 70.571 57.429 128 128 128 38.571 0 100.565 18.731 132.651 40.149l114.005 75.989c19.243 12.843 38.699 19.328 57.856 19.328 38.315 0.043 79.488-29.013 79.488-92.8v-426.667c0-63.787-41.173-92.843-79.445-92.843zM213.333 640c-23.552 0-42.667-19.115-42.667-42.667v-85.333c0-23.552 19.115-42.667 42.667-42.667 51.669 0 124.032-21.12 170.667-48.896v268.501c-46.635-27.819-118.997-48.939-170.667-48.939zM512 768c0 1.963-0.085 3.669-0.256 5.12-1.28-0.683-2.773-1.536-4.437-2.645l-80.64-53.76v-324.096l80.683-53.803c1.621-1.067 3.115-1.963 4.437-2.645 0.128 1.493 0.213 3.2 0.213 5.163v426.667z" /></g></svg>