<?xml version="1.0" encoding="utf-8"?><!DOCTYPE svg PUBLIC "-//W3C//DTD SVG 1.1//EN" "http://www.w3.org/Graphics/SVG/1.1/DTD/svg11.dtd"><svg version="1.1" xmlns="http://www.w3.org/2000/svg" xmlns:xlink="http://www.w3.org/1999/xlink" width="16.046" height="28" viewBox="0 0 16.046 28" data-code="61768" data-tags="level-up"><g fill="#444" transform="scale(0.02734375 0.02734375)"><path d="M581.714 344.571c-6.286 13.143-18.857 21.143-33.143 21.143h-109.714v493.714c0 10.286-8 18.286-18.286 18.286h-402.286c-6.857 0-13.714-4-16.571-10.286-2.857-6.857-2.286-14.286 2.286-20l91.429-109.714c3.429-4 9.143-6.286 14.286-6.286h182.857v-365.714h-109.714c-14.286 0-26.857-8-33.143-21.143-5.714-12.571-4-28 5.143-38.857l182.857-219.429c13.714-16.571 42.286-16.571 56 0l182.857 219.429c9.143 10.857 11.429 26.286 5.143 38.857z" /></g></svg>