<?xml version="1.0" encoding="utf-8"?><!DOCTYPE svg PUBLIC "-//W3C//DTD SVG 1.1//EN" "http://www.w3.org/Graphics/SVG/1.1/DTD/svg11.dtd"><svg version="1.1" xmlns="http://www.w3.org/2000/svg" xmlns:xlink="http://www.w3.org/1999/xlink" width="20" height="20" viewBox="0 0 20 20" data-tags="thumbs-up"><g fill="#444" transform="scale(0.01953125 0.01953125)"><path d="M698.778 376.934c-6.81-18.176 181.197-186.061 71.578-322.099-25.651-31.795-112.691 152.32-236.288 235.674-68.198 45.978-226.867 143.872-226.867 197.99v350.31c0 65.075 251.597 133.99 442.778 133.99 70.093 0 171.622-439.091 171.622-508.826 0-70.042-216.115-68.813-222.822-87.040zM256 381.798c-33.69 0-153.6 20.48-153.6 159.898v248.218c0 139.315 119.91 154.675 153.6 154.675 33.638 0-51.2-29.286-51.2-115.712v-326.298c0-90.522 84.838-120.781 51.2-120.781z" /></g></svg>