<?xml version="1.0" encoding="utf-8"?><!DOCTYPE svg PUBLIC "-//W3C//DTD SVG 1.1//EN" "http://www.w3.org/Graphics/SVG/1.1/DTD/svg11.dtd"><svg version="1.1" xmlns="http://www.w3.org/2000/svg" xmlns:xlink="http://www.w3.org/1999/xlink" width="24" height="28" viewBox="0 0 24 28" data-code="61777" data-tags="caret-square-o-up,toggle-up"><g fill="#444" transform="scale(0.02734375 0.02734375)"><path d="M654.286 638.286c-6.286 12.571-18.857 20-32.571 20h-365.714c-13.714 0-26.286-7.429-32.571-20-6.286-12-5.143-26.857 2.857-37.714l182.857-256c6.857-9.714 17.714-15.429 29.714-15.429s22.857 5.714 29.714 15.429l182.857 256c8 10.857 9.143 25.714 2.857 37.714zM731.429 786.286v-548.571c0-9.714-8.571-18.286-18.286-18.286h-548.571c-9.714 0-18.286 8.571-18.286 18.286v548.571c0 9.714 8.571 18.286 18.286 18.286h548.571c9.714 0 18.286-8.571 18.286-18.286zM877.714 237.714v548.571c0 90.857-73.714 164.571-164.571 164.571h-548.571c-90.857 0-164.571-73.714-164.571-164.571v-548.571c0-90.857 73.714-164.571 164.571-164.571h548.571c90.857 0 164.571 73.714 164.571 164.571z" /></g></svg>