<?xml version="1.0" encoding="utf-8"?><!DOCTYPE svg PUBLIC "-//W3C//DTD SVG 1.1//EN" "http://www.w3.org/Graphics/SVG/1.1/DTD/svg11.dtd"><svg version="1.1" xmlns="http://www.w3.org/2000/svg" xmlns:xlink="http://www.w3.org/1999/xlink" width="32" height="32" viewBox="0 0 32 32" data-tags="stop-watch"><g fill="#444" transform="scale(0.03125 0.03125)"><path d="M480 514.731v-178.692c0-8.687 7.163-16.039 16-16.039 8.578 0 16 7.181 16 16.039v178.692c18.643 6.589 32 24.369 32 45.269s-13.357 38.679-32 45.269v50.692c0 8.687-7.163 16.039-16 16.039-8.578 0-16-7.181-16-16.039v-50.692c-18.643-6.589-32-24.369-32-45.269s13.357-38.679 32-45.269v0 0zM744.657 288.716l39.343-39.343-22.627-22.627 22.627-22.627 67.882 67.882-22.627 22.627-22.627-22.627-39.343 39.343c60.060 65.49 96.716 152.793 96.716 248.657 0 203.241-164.759 368-368 368s-368-164.759-368-368c0-197.88 156.182-359.282 352-367.658v-64.342h-32v-32h96v32h-32v64.342c89.56 3.831 170.829 39.673 232.657 96.374zM496 896c185.568 0 336-150.432 336-336s-150.432-336-336-336c-185.568 0-336 150.432-336 336s150.432 336 336 336v0zM496 576c8.837 0 16-7.163 16-16s-7.163-16-16-16c-8.837 0-16 7.163-16 16s7.163 16 16 16v0z" /></g></svg>