<?xml version="1.0" encoding="utf-8"?><!DOCTYPE svg PUBLIC "-//W3C//DTD SVG 1.1//EN" "http://www.w3.org/Graphics/SVG/1.1/DTD/svg11.dtd"><svg version="1.1" xmlns="http://www.w3.org/2000/svg" xmlns:xlink="http://www.w3.org/1999/xlink" width="24" height="24" viewBox="0 0 24 24" data-tags="laptop_mac"><g fill="#444" transform="scale(0.0234375 0.0234375)"><path d="M512 810q18 0 30-12t12-30-12-30-30-12-30 12-12 30 12 30 30 12zM170 214v468h684v-468h-684zM854 768h170q0 34-26 60t-60 26h-852q-34 0-60-26t-26-60h170q-34 0-59-26t-25-60v-468q0-34 25-60t59-26h684q34 0 59 26t25 60v468q0 34-25 60t-59 26z" /></g></svg>