<?xml version="1.0" encoding="utf-8"?><!DOCTYPE svg PUBLIC "-//W3C//DTD SVG 1.1//EN" "http://www.w3.org/Graphics/SVG/1.1/DTD/svg11.dtd"><svg version="1.1" xmlns="http://www.w3.org/2000/svg" xmlns:xlink="http://www.w3.org/1999/xlink" width="32" height="32" viewBox="0 0 32 32" data-tags="window,desktop,program"><g fill="#444" transform="scale(0.03125 0.03125)"><path d="M896 128h-768c-35.36 0-64 28.672-64 64v640c0 35.328 28.64 64 64 64h768c35.328 0 64-28.672 64-64v-640c0-35.328-28.672-64-64-64zM369.984 176c17.664 0 31.968 14.336 31.968 32s-14.304 32-31.968 32c-17.696 0-32-14.336-32-32s14.336-32 32-32zM272 176c17.664 0 32 14.336 32 32s-14.336 32-32 32c-17.696 0-32-14.336-32-32s14.304-32 32-32zM175.968 176c17.696 0 32 14.336 32 32s-14.304 32-32 32c-17.664 0-31.968-14.336-31.968-32s14.304-32 31.968-32zM896 832h-768v-543.328h768v543.328zM896 224.672h-448v-32h448v32z" /></g></svg>