<?xml version="1.0" encoding="utf-8"?><!DOCTYPE svg PUBLIC "-//W3C//DTD SVG 1.1//EN" "http://www.w3.org/Graphics/SVG/1.1/DTD/svg11.dtd"><svg version="1.1" xmlns="http://www.w3.org/2000/svg" xmlns:xlink="http://www.w3.org/1999/xlink" width="32" height="32" viewBox="0 0 32 32" data-tags="monitor,pc,desktop,screen"><g fill="#444" transform="scale(0.03125 0.03125)"><path d="M544 798.016h-96v49.984l-96 16v32h286.016v-30.016l-94.016-17.984v-49.984zM864 128h-736c-35.36 0-64 28.64-64 64v448c0 35.328 28.64 64 64 64h736c35.36 0 64-28.672 64-64v-448c0-35.36-28.64-64-64-64zM492 656c-17.664 0-32-14.336-32-32 0-17.696 14.336-32 32-32 17.696 0 32 14.304 32 32 0 17.664-14.336 32-32 32zM864 544h-736v-352h736v352z" /></g></svg>