<?xml version="1.0" encoding="utf-8"?><!DOCTYPE svg PUBLIC "-//W3C//DTD SVG 1.1//EN" "http://www.w3.org/Graphics/SVG/1.1/DTD/svg11.dtd"><svg version="1.1" xmlns="http://www.w3.org/2000/svg" xmlns:xlink="http://www.w3.org/1999/xlink" width="20" height="20" viewBox="0 0 20 20" data-tags="chevron-with-circle-up"><g fill="#444" transform="scale(0.01953125 0.01953125)"><path d="M530.381 398.592c-10.189-10.035-26.624-10.035-36.71 0l-146.637 143.718c-10.189 9.984-10.138 26.317 0 36.352 10.086 10.035 26.522 10.035 36.71 0l128.256-117.862 128.307 117.862c10.138 10.035 26.522 10.035 36.762 0 10.086-10.035 10.086-26.368 0-36.352l-146.688-143.718zM512 20.48c-271.462 0-491.52 220.058-491.52 491.52 0 271.514 220.058 491.52 491.52 491.52s491.52-220.006 491.52-491.52c0-271.462-220.058-491.52-491.52-491.52zM512 939.725c-236.288 0-427.725-191.488-427.725-427.725s191.437-427.725 427.725-427.725c236.186 0 427.725 191.488 427.725 427.725s-191.539 427.725-427.725 427.725z" /></g></svg>