<?xml version="1.0" encoding="utf-8"?><!DOCTYPE svg PUBLIC "-//W3C//DTD SVG 1.1//EN" "http://www.w3.org/Graphics/SVG/1.1/DTD/svg11.dtd"><svg version="1.1" xmlns="http://www.w3.org/2000/svg" xmlns:xlink="http://www.w3.org/1999/xlink" width="18" height="18" viewBox="0 0 18 18" data-tags="up"><g fill="#444" transform="scale(0.017578125 0.017578125)"><path d="M967.111 512c0-251.362-203.749-455.111-455.111-455.111s-455.111 203.749-455.111 455.111c0 251.362 203.749 455.111 455.111 455.111s455.111-203.749 455.111-455.111zM170.667 512c0-188.222 153.111-341.333 341.333-341.333s341.333 153.111 341.333 341.333-153.111 341.333-341.333 341.333-341.333-153.111-341.333-341.333z" /><path d="M568.784 683.221v-206.667l73.584 74.917c22.277 22.055 58.332 22.055 80.612 0 22.251-22.055 22.251-57.778 0-79.833l-168.779-170.667c-10.695-10.583-25.166-16.528-40.306-16.528-0.651 0-1.3 0.025-1.95 0.048-0.649-0.023-1.296-0.048-1.948-0.048-15.141 0-29.611 5.945-40.306 16.528l-168.779 170.667c-22.251 22.055-22.251 57.778 0 79.833 22.277 22.055 58.332 22.055 80.612 0l73.588-74.917v206.667c0 31.111 25.223 56.334 56.334 56.334h1.006c31.111 0 56.332-25.223 56.332-56.334z" /></g></svg>