<?xml version="1.0" encoding="utf-8"?><!DOCTYPE svg PUBLIC "-//W3C//DTD SVG 1.1//EN" "http://www.w3.org/Graphics/SVG/1.1/DTD/svg11.dtd"><svg version="1.1" xmlns="http://www.w3.org/2000/svg" xmlns:xlink="http://www.w3.org/1999/xlink" width="32" height="32" viewBox="0 0 32 32" data-tags="monitor,screen,desktop,pc"><g fill="#444" transform="scale(0.03125 0.03125)"><path d="M960 768c0 0-264 0-320 0s64 192 64 192c0 35.328-28.672 64-64 64h-256c-35.328 0-64-28.672-64-64 0 0 121.984-192 64-192s-320 0-320 0c-35.328 0-64-28.672-64-64v-640c0-35.328 28.672-64 64-64h896c35.328 0 64 28.672 64 64v640c0 35.328-28.672 64-64 64zM512 736c35.328 0 64-28.672 64-64s-28.672-64-64-64-64 28.672-64 64 28.672 64 64 64zM960 128c0-35.328-28.672-64-64-64h-768c-35.328 0-64 28.672-64 64v384c0 35.328 28.672 64 64 64h768c35.328 0 64-28.672 64-64v-384z" /></g></svg>