<?xml version="1.0" encoding="utf-8"?><!DOCTYPE svg PUBLIC "-//W3C//DTD SVG 1.1//EN" "http://www.w3.org/Graphics/SVG/1.1/DTD/svg11.dtd"><svg version="1.1" xmlns="http://www.w3.org/2000/svg" xmlns:xlink="http://www.w3.org/1999/xlink" width="25.5" height="28" viewBox="0 0 25.5 28" data-code="62038" data-tags="hand-paper-o,hand-stop-o"><g fill="#444" transform="scale(0.02734375 0.02734375)"><path d="M502.857 73.143c-35.429 0-64 28.571-64 64v374.857h-18.286v-301.714c0-35.429-28.571-64-64-64s-64 28.571-64 64v448l-88-117.143c-13.714-18.286-35.429-29.143-58.286-29.143-40.571 0-73.143 33.143-73.143 73.143 0 16 5.143 31.429 14.857 44l219.429 292.571c13.714 18.286 35.429 29.143 58.286 29.143h393.143c26.286 0 49.143-18.857 54.286-44.571l43.429-231.429c1.714-10.857 2.857-22.286 2.857-33.714v-284.571c0-35.429-28.571-64-64-64s-64 28.571-64 64v155.429h-18.286v-301.714c0-35.429-28.571-64-64-64s-64 28.571-64 64v301.714h-18.286v-374.857c0-35.429-28.571-64-64-64zM502.857 0c51.429 0 98.857 29.143 122.286 75.429 8-1.714 16-2.286 24-2.286 75.429 0 137.143 61.714 137.143 137.143v9.714c79.429-4.571 146.286 56.571 146.286 136.571v284.571c0 16-1.714 32-4.571 47.429l-43.429 230.857c-10.857 60.571-64 104.571-125.714 104.571h-393.143c-45.714 0-89.714-22.286-117.143-58.286l-219.429-292.571c-18.857-25.143-29.143-56.571-29.143-88 0-80.571 65.143-146.286 146.286-146.286 24 0 53.143 5.714 73.143 19.429v-248c0-75.429 61.714-137.143 137.143-137.143 8 0 16 0.571 24 2.286 23.429-46.286 70.857-75.429 122.286-75.429z" /></g></svg>