<?xml version="1.0" encoding="utf-8"?><!DOCTYPE svg PUBLIC "-//W3C//DTD SVG 1.1//EN" "http://www.w3.org/Graphics/SVG/1.1/DTD/svg11.dtd"><svg version="1.1" xmlns="http://www.w3.org/2000/svg" xmlns:xlink="http://www.w3.org/1999/xlink" width="20" height="20" viewBox="0 0 20 20" data-tags="border-top"><g fill="#444" transform="scale(0.01953125 0.01953125)"><path d="M51.2 51.2h921.6v102.4h-921.6v-102.4zM51.2 256h102.4v102.4h-102.4v-102.4zM51.2 460.8h102.4v102.4h-102.4v-102.4zM51.2 665.6h102.4v102.4h-102.4v-102.4zM51.2 870.4h102.4v102.4h-102.4v-102.4zM256 460.8h102.4v102.4h-102.4v-102.4zM256 870.4h102.4v102.4h-102.4v-102.4zM460.8 256h102.4v102.4h-102.4v-102.4zM460.8 460.8h102.4v102.4h-102.4v-102.4zM460.8 665.6h102.4v102.4h-102.4v-102.4zM460.8 870.4h102.4v102.4h-102.4v-102.4zM665.6 460.8h102.4v102.4h-102.4v-102.4zM665.6 870.4h102.4v102.4h-102.4v-102.4zM870.4 256h102.4v102.4h-102.4v-102.4zM870.4 460.8h102.4v102.4h-102.4v-102.4zM870.4 665.6h102.4v102.4h-102.4v-102.4zM870.4 870.4h102.4v102.4h-102.4v-102.4z" /></g></svg>