<?xml version="1.0" encoding="utf-8"?><!DOCTYPE svg PUBLIC "-//W3C//DTD SVG 1.1//EN" "http://www.w3.org/Graphics/SVG/1.1/DTD/svg11.dtd"><svg version="1.1" xmlns="http://www.w3.org/2000/svg" xmlns:xlink="http://www.w3.org/1999/xlink" width="24" height="28" viewBox="0 0 24 28" data-code="62094" data-tags="stop-circle-o"><g fill="#444" transform="scale(0.02734375 0.02734375)"><path d="M438.857 73.143c242.286 0 438.857 196.571 438.857 438.857s-196.571 438.857-438.857 438.857-438.857-196.571-438.857-438.857 196.571-438.857 438.857-438.857zM438.857 822.857c171.429 0 310.857-139.429 310.857-310.857s-139.429-310.857-310.857-310.857-310.857 139.429-310.857 310.857 139.429 310.857 310.857 310.857zM274.286 694.857c-10.286 0-18.286-8-18.286-18.286v-329.143c0-10.286 8-18.286 18.286-18.286h329.143c10.286 0 18.286 8 18.286 18.286v329.143c0 10.286-8 18.286-18.286 18.286h-329.143z" /></g></svg>