<?xml version="1.0" encoding="utf-8"?><!DOCTYPE svg PUBLIC "-//W3C//DTD SVG 1.1//EN" "http://www.w3.org/Graphics/SVG/1.1/DTD/svg11.dtd"><svg version="1.1" xmlns="http://www.w3.org/2000/svg" xmlns:xlink="http://www.w3.org/1999/xlink" width="32" height="32" viewBox="0 0 32 32" data-tags="thumbs up,like,approve"><g fill="#444" transform="scale(0.03125 0.03125)"><path d="M244.704 418.208c3.68-17.408-19.616-32.48-44.672-33.088-30.016-0.736-53.152-0.992-73.984-1.088-17.12-0.064-29.952 14.304-30.048 31.968v480c0.096 17.664 12.896 32.032 30.144 31.968 20.96-0.096 44.576-0.352 76.064-1.088 26.304-0.64 51.008-15.68 46.784-33.088-32.704-157.92-32.96-317.664-4.288-475.584zM864 512h-288v-64h288c35.328 0 64-28.672 64-64s-28.672-64-64-64h-280l4-48.064 20-159.936c0-61.856-50.112-112-112-112-61.856 0-112-13.856-112 48l-18.304 112-13.664 95.712-32.032 208.288c0 3.296 0.48 5.888 1.12 8.256l-1.12 7.744-29.248 19.232c0 0-2.752 8.192-2.752 12.768v352c0 17.696 14.336 32 32 32h3.232c14.816 73.024 79.36 128 156.768 128h256c77.408 0 141.952-54.976 156.768-128h-252.768c-35.328 0-64-28.672-64-64h256c35.328 0 64-28.672 64-64s-28.672-64-64-64h-256v-64h288c35.328 0 64-28.672 64-64s-28.672-64-64-64z" /></g></svg>