<?xml version="1.0" encoding="utf-8"?><!DOCTYPE svg PUBLIC "-//W3C//DTD SVG 1.1//EN" "http://www.w3.org/Graphics/SVG/1.1/DTD/svg11.dtd"><svg version="1.1" xmlns="http://www.w3.org/2000/svg" xmlns:xlink="http://www.w3.org/1999/xlink" width="16" height="16" viewBox="0 0 16 16" data-tags="screen,display,monitor,pc,computer,desktop"><g fill="#444" transform="scale(0.015625 0.015625)"><path d="M960 0h-896c-35.344 0-64 28.624-64 64v704c0 35.376 28.656 64 64 64h384v64h-192c-35.344 0-64 28.624-64 64v64h640v-64c0-35.376-28.656-64-64-64h-192v-64h384c35.344 0 64-28.624 64-64v-704c0-35.376-28.656-64-64-64zM896 704h-768v-576h768v576z" /></g></svg>