<?xml version="1.0" encoding="utf-8"?><!DOCTYPE svg PUBLIC "-//W3C//DTD SVG 1.1//EN" "http://www.w3.org/Graphics/SVG/1.1/DTD/svg11.dtd"><svg version="1.1" xmlns="http://www.w3.org/2000/svg" xmlns:xlink="http://www.w3.org/1999/xlink" width="20" height="20" viewBox="0 0 20 20" data-tags="brightness-up"><g fill="#444" transform="scale(0.01953125 0.01953125)"><path d="M512 716.8c-113.108 0-204.8-91.692-204.8-204.8s91.692-204.8 204.8-204.8v0c113.108 0 204.8 91.692 204.8 204.8s-91.692 204.8-204.8 204.8v0zM460.8 51.2c0-28.277 22.923-51.2 51.2-51.2s51.2 22.923 51.2 51.2v0 102.4c0 28.277-22.923 51.2-51.2 51.2s-51.2-22.923-51.2-51.2v0-102.4zM801.28 150.528c9.446-10.984 23.36-17.897 38.889-17.897 28.277 0 51.2 22.923 51.2 51.2 0 15.528-6.913 29.442-17.829 38.832l-0.067 0.057-71.68 71.68c-9.446 10.984-23.36 17.897-38.889 17.897-28.277 0-51.2-22.923-51.2-51.2 0-15.528 6.913-29.442 17.829-38.832l0.067-0.057 71.68-71.68zM972.288 460.8c28.277 0 51.2 22.923 51.2 51.2s-22.923 51.2-51.2 51.2v0h-101.376c-28.277 0-51.2-22.923-51.2-51.2s22.923-51.2 51.2-51.2v0h101.376zM873.472 801.28c10.984 9.446 17.897 23.36 17.897 38.889 0 28.277-22.923 51.2-51.2 51.2-15.528 0-29.442-6.913-38.832-17.829l-0.057-0.067-71.68-71.68c-10.984-9.446-17.897-23.36-17.897-38.889 0-28.277 22.923-51.2 51.2-51.2 15.528 0 29.442 6.913 38.832 17.829l0.057 0.067 71.68 71.68zM563.2 972.288c0 28.277-22.923 51.2-51.2 51.2s-51.2-22.923-51.2-51.2v0-101.376c0-28.277 22.923-51.2 51.2-51.2s51.2 22.923 51.2 51.2v0 101.376zM222.72 873.472c-9.446 10.984-23.36 17.897-38.889 17.897-28.277 0-51.2-22.923-51.2-51.2 0-15.528 6.913-29.442 17.829-38.832l0.067-0.057 71.68-71.68c9.446-10.984 23.36-17.897 38.889-17.897 28.277 0 51.2 22.923 51.2 51.2 0 15.528-6.913 29.442-17.829 38.832l-0.067 0.057-71.68 71.68zM51.712 563.2c-28.277 0-51.2-22.923-51.2-51.2s22.923-51.2 51.2-51.2v0h101.376c28.277 0 51.2 22.923 51.2 51.2s-22.923 51.2-51.2 51.2v0h-101.376zM150.528 222.72c-10.984-9.446-17.897-23.36-17.897-38.889 0-28.277 22.923-51.2 51.2-51.2 15.528 0 29.442 6.913 38.832 17.829l0.057 0.067 71.68 71.68c10.984 9.446 17.897 23.36 17.897 38.889 0 28.277-22.923 51.2-51.2 51.2-15.528 0-29.442-6.913-38.832-17.829l-0.057-0.067-71.68-71.68z" /></g></svg>