<?xml version="1.0" encoding="utf-8"?><!DOCTYPE svg PUBLIC "-//W3C//DTD SVG 1.1//EN" "http://www.w3.org/Graphics/SVG/1.1/DTD/svg11.dtd"><svg version="1.1" xmlns="http://www.w3.org/2000/svg" xmlns:xlink="http://www.w3.org/1999/xlink" width="32" height="32" viewBox="0 0 32 32" data-tags="thumb-up"><g fill="#444" transform="scale(0.03125 0.03125)"><path d="M352 416h-192.061c-35.313 0-63.939 28.482-63.939 64.003v415.993c0 35.348 28.375 64.003 63.939 64.003h623.792c44.331 0 80.269-35.509 80.269-80 0-18.010-5.931-34.63-15.976-48.001 44.197-0.156 79.976-35.607 79.976-79.999 0-20.345-7.568-38.916-20.087-53.034 30.43-11.302 52.087-40.428 52.087-74.966 0-20.345-7.568-38.916-20.087-53.034 30.43-11.302 52.087-40.428 52.087-74.966 0-44.183-35.693-80-80.269-80h-191.739c33.578-160.539 17.492-352-111.992-352s-61.877 153.205-112 248.406c-50.123 95.202-144 103.594-144 103.594v0 0zM159.705 448h160.295v480h-160.295c-17.274 0-31.705-14.434-31.705-32.239v-415.521c0-17.874 14.195-32.239 31.705-32.239zM224 864c17.673 0 32-14.327 32-32s-14.327-32-32-32c-17.673 0-32 14.327-32 32s14.327 32 32 32v0 0zM681.6 448h230.621c26.535 0 47.779 21.49 47.779 48 0 26.694-21.391 48-47.779 48h-112.221v32h80.221c26.535 0 47.779 21.49 47.779 48 0 26.694-21.391 48-47.779 48h-112.221v32h80.221c26.535 0 47.779 21.49 47.779 48 0 26.694-21.391 48-47.779 48h-112.221v32h47.946c26.576 0 48.054 21.49 48.054 48 0 26.694-21.514 48-48.054 48h-431.946c0 0 0-416 0-480 48 0 89.792-32 89.792-32 29.127-18.186 60.678-45.703 82.083-86.359 50.123-95.202-7.742-233.641 84.125-233.641 94.728 0 110.337 155.288 80.038 320 0 0-6.437 32-6.437 32v0 0z" /></g></svg>