<?xml version="1.0" encoding="utf-8"?><!DOCTYPE svg PUBLIC "-//W3C//DTD SVG 1.1//EN" "http://www.w3.org/Graphics/SVG/1.1/DTD/svg11.dtd"><svg version="1.1" xmlns="http://www.w3.org/2000/svg" xmlns:xlink="http://www.w3.org/1999/xlink" width="32" height="32" viewBox="0 0 32 32" data-tags="thumb-up"><g fill="#444" transform="scale(0.03125 0.03125)"><path d="M320 928h431.946c26.539 0 48.054-21.306 48.054-48 0-26.51-21.478-48-48.054-48h-47.946v-32h112.221c26.388 0 47.779-21.306 47.779-48 0-26.51-21.244-48-47.779-48h-80.221v-32h112.221c26.388 0 47.779-21.306 47.779-48 0-26.51-21.244-48-47.779-48h-80.221v-32h112.221c26.388 0 47.779-21.306 47.779-48 0-26.51-21.244-48-47.779-48h-230.621c38.424-176 27.248-352-73.6-352-91.867 0-34.002 138.439-84.125 233.641s-155.874 118.359-155.875 118.359h-16v480zM159.933 448h128.067v480h-128.067c-35.189 0-63.933-28.538-63.933-63.74v-352.519c0-35.152 28.624-63.74 63.933-63.74zM192 864c17.673 0 32-14.327 32-32s-14.327-32-32-32c-17.673 0-32 14.327-32 32s14.327 32 32 32v0 0z" /></g></svg>