<?xml version="1.0" encoding="utf-8"?><!DOCTYPE svg PUBLIC "-//W3C//DTD SVG 1.1//EN" "http://www.w3.org/Graphics/SVG/1.1/DTD/svg11.dtd"><svg version="1.1" xmlns="http://www.w3.org/2000/svg" xmlns:xlink="http://www.w3.org/1999/xlink" width="32" height="32" viewBox="0 0 32 32" data-tags="thumb-up"><g fill="#444" transform="scale(0.03125 0.03125)"><path d="M615.962 960h136.114c44.141 0 79.924-35.509 79.924-80 0-18.010-5.996-34.63-16.069-48 44.239-0.107 80.069-35.576 80.069-80 0-20.345-7.568-38.916-20.087-53.034v0c30.43-11.302 52.087-40.428 52.087-74.966 0-20.345-7.568-38.916-20.087-53.034 30.43-11.302 52.087-40.428 52.087-74.966 0-44.183-35.693-80-80.269-80h-191.739c33.578-160.539 17.492-352-111.992-352s-61.877 153.205-112 248.406c-50.122 95.198-143.993 103.593-144 103.594h-192.157c-35.259 0-63.843 28.589-63.843 63.74v352.519c0 35.203 28.375 63.74 63.939 63.74h192.061l192 64h103.962zM336 448c0 0 105.752-23.158 155.875-118.359s-7.742-233.641 84.125-233.641c100.848 0 112.023 176 73.6 352v0h230.621c26.535 0 47.779 21.49 47.779 48 0 26.694-21.391 48-47.779 48h-112.221v32h80.221c26.535 0 47.779 21.49 47.779 48 0 26.694-21.391 48-47.779 48h-112.221v32h80.221c26.535 0 47.779 21.49 47.779 48 0 26.694-21.391 48-47.779 48h-112.221v32h47.946c26.576 0 48.054 21.49 48.054 48 0 26.694-21.514 48-48.054 48h-239.946l-192-64h-191.906c-18.082 0-32.094-14.305-32.094-31.952v-352.096c0-17.632 14.326-31.952 31.999-31.952h208.001z" /></g></svg>