<?xml version="1.0" encoding="utf-8"?><!DOCTYPE svg PUBLIC "-//W3C//DTD SVG 1.1//EN" "http://www.w3.org/Graphics/SVG/1.1/DTD/svg11.dtd"><svg version="1.1" xmlns="http://www.w3.org/2000/svg" xmlns:xlink="http://www.w3.org/1999/xlink" width="32" height="32" viewBox="0 0 32 32" data-tags="thumb-up"><g fill="#444" transform="scale(0.03125 0.03125)"><path d="M649.6 448h230.621c26.535 0 47.779 21.49 47.779 48 0 26.694-21.391 48-47.779 48h-112.221v32h80.221c26.535 0 47.779 21.49 47.779 48 0 26.694-21.391 48-47.779 48h-112.221v32h80.221c26.535 0 47.779 21.49 47.779 48 0 26.694-21.391 48-47.779 48h-112.221v32h47.946c26.576 0 48.054 21.49 48.054 48 0 26.694-21.514 48-48.054 48h-239.946l-192-64h-191.906c-18.082 0-32.094-14.305-32.094-31.952v-352.096c0-17.632 14.326-31.952 31.999-31.952h208.001c0 0 105.752-23.158 155.875-118.359s-7.742-233.641 84.125-233.641c100.848 0 112.023 176 73.6 352v0z" /></g></svg>