<?xml version="1.0" encoding="utf-8"?><!DOCTYPE svg PUBLIC "-//W3C//DTD SVG 1.1//EN" "http://www.w3.org/Graphics/SVG/1.1/DTD/svg11.dtd"><svg version="1.1" xmlns="http://www.w3.org/2000/svg" xmlns:xlink="http://www.w3.org/1999/xlink" width="24" height="24" viewBox="0 0 24 24" data-tags="thumb_up_alt"><g fill="#444" transform="scale(0.0234375 0.0234375)"><path d="M932 550l-114 262q-26 42-74 42h-346q-40 0-70-30t-30-70v-334q0-36 26-62l274-272 18 20q24 24 38 52 6 14 4 28l-40 198h236q34 0 59 26t25 60v46q0 18-6 34zM86 854v-470h84q18 0 31 12t13 30v384q0 18-13 31t-31 13h-84z" /></g></svg>