<?xml version="1.0" encoding="utf-8"?><!DOCTYPE svg PUBLIC "-//W3C//DTD SVG 1.1//EN" "http://www.w3.org/Graphics/SVG/1.1/DTD/svg11.dtd"><svg version="1.1" xmlns="http://www.w3.org/2000/svg" xmlns:xlink="http://www.w3.org/1999/xlink" width="32" height="32" viewBox="0 0 32 32" data-tags="two-fingers-swipe-up"><g fill="#444" transform="scale(0.03125 0.03125)"><path d="M607.7 927.6c-110.7-5.6-178.2-69.5-232.1-160.1-125.2-210.6-214.8-307-180-342 35.5-35.7 122.3 41.7 188.1 112.1v-329.3c0-27 21.5-48.3 48-48.3 26.7 0 48 21.6 48 48.3v303.7h32v-368.3c0-26.1 21.5-47.7 48-47.7 26.7 0 48 21.4 48 47.7v336.3h32v-80.3c0-26.5 21.5-47.7 48-47.7 26.7 0 48 21.4 48 47.7v112.3h32v-79.8c0-26.6 21.5-48.2 48-48.2 26.7 0 48 21.6 48 48.2v255.8c0 127.2-98.9 231.2-224 239.5v-289.1l104 104 24-24-144-144-144 144 24 24 104-104v289.2z" /></g></svg>