<?xml version="1.0" encoding="utf-8"?><!DOCTYPE svg PUBLIC "-//W3C//DTD SVG 1.1//EN" "http://www.w3.org/Graphics/SVG/1.1/DTD/svg11.dtd"><svg version="1.1" xmlns="http://www.w3.org/2000/svg" xmlns:xlink="http://www.w3.org/1999/xlink" width="32" height="32" viewBox="0 0 32 32" data-tags="one-finger-swipe-up"><g fill="#444" transform="scale(0.03125 0.03125)"><path d="M640 927.4c125.1-8.8 224-119.3 224-239.4 0 0 0 74 0 0v-191.9c0-26.5-21.3-48.1-48-48.1-26.5 0-48 21.5-48 48.1v15.9h-32v-79.8c0-26.6-21.3-48.2-48-48.2-26.5 0-48 21.5-48 48.2v47.8h-32v-79.8c0-26.6-21.3-48.2-48-48.2-26.5 0-48 21.5-48 48.2v111.8h-32v-335.8c0-26.6-21.3-48.2-48-48.2-26.5 0-48 21.3-48 48.2v361.4c-65.9-70.4-152.6-147.9-188.1-112.1-34.8 35 54.9 131.4 180 342 53.9 90.6 121.4 154.5 232.1 160.1v-289.2l-104 104-24-24 144-144 144 144-24 24-104-104v289zM896 688c0 150.2-121.8 272-272 272-99.6 0-204.7-46.5-277.1-178.3-104.4-190.3-238-315-174.4-378.6 45.5-45.5 116.9-1.8 179.5 56.7v0-283.5c0-44.6 35.8-80.3 80-80.3 44.5 0 80 35.9 80 80.3v159.7c13.4-10 30-15.9 48-15.9 34.6 0 63.8 21.7 75.1 52.1 14.1-12.5 32.6-20.1 52.9-20.1 44.5 0 80 35.8 80 79.9v0.4c13.4-10 30-15.9 48-15.9 44.5 0 80 35.8 80 80v191.5z" /></g></svg>