<?xml version="1.0" encoding="utf-8"?><!DOCTYPE svg PUBLIC "-//W3C//DTD SVG 1.1//EN" "http://www.w3.org/Graphics/SVG/1.1/DTD/svg11.dtd"><svg version="1.1" xmlns="http://www.w3.org/2000/svg" xmlns:xlink="http://www.w3.org/1999/xlink" width="32" height="32" viewBox="0 0 32 32" data-tags="three-fingers-swipe-up"><g fill="#444" transform="scale(0.03125 0.03125)"><path d="M608 927.6v-289.2l-104 104-24-24 144-144 144 144-24 24-104-104v289.1c125.1-8.2 224-112.3 224-239.5v-191.9c0-26.5-21.3-48.1-48-48.1-26.5 0-48 21.5-48 48.1v15.9h-32v-335.9c0-26.6-21.3-48.1-48-48.1-26.5 0-48 21.3-48 48.1v303.9h-32v-336.3c0-26.3-21.3-47.7-48-47.7-26.5 0-48 21.6-48 47.7v368.3h-32v-335.8c0-26.6-21.3-48.2-48-48.2-26.5 0-48 21.3-48 48.2v361.4c-65.9-70.4-152.6-147.8-188.1-112.1-34.8 35 54.9 131.4 180 342 53.9 90.6 121.4 154.5 232.1 160.1zM896 688c0 150.2-121.8 272-272 272-99.6 0-204.7-46.5-277.1-178.3-104.4-190.3-238-315-174.4-378.6 45.5-45.5 116.9-1.8 179.5 56.7v0-283.7c0-44.1 35.8-80.1 80-80.1 20.4 0 39 7.6 53 20 11.4-30.4 40.6-52 75-52 34.6 0 63.7 21.7 75 52.1 14.1-12.5 32.7-20.1 53-20.1 44.5 0 80 35.9 80 80.1v256.4c13.4-10.1 30-16 48-16 44.5 0 80 35.8 80 80v191.5z" /></g></svg>