<?xml version="1.0" encoding="utf-8"?><!DOCTYPE svg PUBLIC "-//W3C//DTD SVG 1.1//EN" "http://www.w3.org/Graphics/SVG/1.1/DTD/svg11.dtd"><svg version="1.1" xmlns="http://www.w3.org/2000/svg" xmlns:xlink="http://www.w3.org/1999/xlink" width="32" height="32" viewBox="0 0 32 32" data-tags="three-fingers-swipe-up"><g fill="#444" transform="scale(0.03125 0.03125)"><path d="M640 638.4v289.3c126.8-6.4 223.7-111.3 223.7-239.7v-255.8c0-26.6-21.3-48.2-48-48.2-26.5 0-48 21.6-48 48.2v79.8h-32v-304.3c0-26.4-21.3-47.7-48-47.7-26.5 0-48 21.2-48 47.7v272.3h-32v-336.3c0-26.3-21.3-47.7-48-47.7-26.5 0-48 21.6-48 47.7v368.3h-32v-303.7c0-26.7-21.3-48.3-48-48.3-26.5 0-48 21.3-48 48.3v329.3c-65.9-70.4-152.6-147.8-188.1-112.1-34.8 35 54.9 131.4 180 342 53.3 89.6 123.9 153.1 232.4 159.9v0-289l-104 104-24-24 144-144 144 144-24 24-104-104z" /></g></svg>