<?xml version="1.0" encoding="utf-8"?><!DOCTYPE svg PUBLIC "-//W3C//DTD SVG 1.1//EN" "http://www.w3.org/Graphics/SVG/1.1/DTD/svg11.dtd"><svg version="1.1" xmlns="http://www.w3.org/2000/svg" xmlns:xlink="http://www.w3.org/1999/xlink" width="32" height="32" viewBox="0 0 32 32" data-tags="two-fingers-swipe-up"><g fill="#444" transform="scale(0.03125 0.03125)"><path d="M672 322.478v-194.478l-104 104-24-24 144-144 144 144-24 24-104-104v194.483c71.874 7.981 128 69.084 128 143.278v527.839h-288v-527.839c0-74.305 56.001-135.327 128-143.282zM320 418.478v-194.478l-104 104-24-24 144-144 144 144-24 24-104-104v194.481c71.874 7.965 128 68.941 128 142.982v432.137h-288v-432.137c0-74.062 56.001-135.035 128-142.985zM336 481.6c-44.183 0-80 36.114-80 80.313v111.687h160v-111.687c0-44.356-35.509-80.313-80-80.313v0zM256 769.6v32h160v-32h-160zM256 833.6v32h160v-32h-160zM688 385.6c-44.183 0-80 36.114-80 80.313v111.687h160v-111.687c0-44.356-35.509-80.313-80-80.313v0zM608 673.6v32h160v-32h-160zM608 737.6v32h160v-32h-160z" /></g></svg>