<?xml version="1.0" encoding="utf-8"?><!DOCTYPE svg PUBLIC "-//W3C//DTD SVG 1.1//EN" "http://www.w3.org/Graphics/SVG/1.1/DTD/svg11.dtd"><svg version="1.1" xmlns="http://www.w3.org/2000/svg" xmlns:xlink="http://www.w3.org/1999/xlink" width="24" height="24" viewBox="0 0 24 24" data-tags="corner-left-up"><g fill="#444" transform="scale(0.0234375 0.0234375)"><path d="M853.333 810.667h-298.667c-35.371 0-67.285-14.293-90.496-37.504s-37.504-55.125-37.504-90.496v-409.003l140.501 140.501c16.683 16.683 43.691 16.683 60.331 0s16.683-43.691 0-60.331l-213.333-213.333c-4.096-4.096-8.789-7.168-13.824-9.259s-10.539-3.243-16.341-3.243-11.307 1.152-16.341 3.243c-5.035 2.091-9.728 5.163-13.824 9.259l-213.333 213.333c-16.683 16.683-16.683 43.691 0 60.331s43.691 16.683 60.331 0l140.501-140.501v409.003c0 58.88 23.936 112.299 62.464 150.869s91.989 62.464 150.869 62.464h298.667c23.552 0 42.667-19.115 42.667-42.667s-19.115-42.667-42.667-42.667z" /></g></svg>