<?xml version="1.0" encoding="utf-8"?><!DOCTYPE svg PUBLIC "-//W3C//DTD SVG 1.1//EN" "http://www.w3.org/Graphics/SVG/1.1/DTD/svg11.dtd"><svg version="1.1" xmlns="http://www.w3.org/2000/svg" xmlns:xlink="http://www.w3.org/1999/xlink" width="24" height="24" viewBox="0 0 24 24" data-tags="corner-right-up"><g fill="#444" transform="scale(0.0234375 0.0234375)"><path d="M170.667 896h298.667c58.88 0 112.299-23.936 150.869-62.464s62.464-91.989 62.464-150.869v-409.003l140.501 140.501c16.683 16.683 43.691 16.683 60.331 0s16.683-43.691 0-60.331l-213.333-213.333c-3.925-3.925-8.619-7.083-13.824-9.259-15.445-6.4-33.92-3.328-46.507 9.259l-213.333 213.333c-16.683 16.683-16.683 43.691 0 60.331s43.691 16.683 60.331 0l140.501-140.501v409.003c0 35.371-14.293 67.285-37.504 90.496s-55.125 37.504-90.496 37.504h-298.667c-23.552 0-42.667 19.115-42.667 42.667s19.115 42.667 42.667 42.667z" /></g></svg>