<?xml version="1.0" encoding="utf-8"?><!DOCTYPE svg PUBLIC "-//W3C//DTD SVG 1.1//EN" "http://www.w3.org/Graphics/SVG/1.1/DTD/svg11.dtd"><svg version="1.1" xmlns="http://www.w3.org/2000/svg" xmlns:xlink="http://www.w3.org/1999/xlink" width="24" height="24" viewBox="0 0 24 24" data-tags="corner-up-left"><g fill="#444" transform="scale(0.0234375 0.0234375)"><path d="M896 853.333v-298.667c0-58.88-23.936-112.299-62.464-150.869s-91.989-62.464-150.869-62.464h-409.003l140.501-140.501c16.683-16.683 16.683-43.691 0-60.331s-43.691-16.683-60.331 0l-213.333 213.333c-4.096 4.096-7.168 8.789-9.259 13.824s-3.243 10.539-3.243 16.341 1.152 11.307 3.243 16.341c2.091 5.035 5.163 9.728 9.259 13.824l213.333 213.333c16.683 16.683 43.691 16.683 60.331 0s16.683-43.691 0-60.331l-140.501-140.501h409.003c35.371 0 67.285 14.293 90.496 37.504s37.504 55.125 37.504 90.496v298.667c0 23.552 19.115 42.667 42.667 42.667s42.667-19.115 42.667-42.667z" /></g></svg>