<?xml version="1.0" encoding="utf-8"?><!DOCTYPE svg PUBLIC "-//W3C//DTD SVG 1.1//EN" "http://www.w3.org/Graphics/SVG/1.1/DTD/svg11.dtd"><svg version="1.1" xmlns="http://www.w3.org/2000/svg" xmlns:xlink="http://www.w3.org/1999/xlink" width="24" height="24" viewBox="0 0 24 24" data-tags="corner-up-right"><g fill="#444" transform="scale(0.0234375 0.0234375)"><path d="M213.333 853.333v-298.667c0-35.371 14.293-67.285 37.504-90.496s55.125-37.504 90.496-37.504h409.003l-140.501 140.501c-16.683 16.683-16.683 43.691 0 60.331s43.691 16.683 60.331 0l213.333-213.333c3.925-3.925 7.083-8.619 9.259-13.824 4.309-10.453 4.309-22.229 0-32.683-2.091-5.035-5.163-9.728-9.259-13.824l-213.333-213.333c-16.683-16.683-43.691-16.683-60.331 0s-16.683 43.691 0 60.331l140.501 140.501h-409.003c-58.88 0-112.299 23.936-150.869 62.464s-62.464 91.989-62.464 150.869v298.667c0 23.552 19.115 42.667 42.667 42.667s42.667-19.115 42.667-42.667z" /></g></svg>