<?xml version="1.0" encoding="utf-8"?><!DOCTYPE svg PUBLIC "-//W3C//DTD SVG 1.1//EN" "http://www.w3.org/Graphics/SVG/1.1/DTD/svg11.dtd"><svg version="1.1" xmlns="http://www.w3.org/2000/svg" xmlns:xlink="http://www.w3.org/1999/xlink" width="20" height="20" viewBox="0 0 20 20" data-tags="cheveron-outline-up"><g fill="#444" transform="scale(0.01953125 0.01953125)"><path d="M0 512c0-282.77 229.23-512 512-512s512 229.23 512 512v0c0 282.77-229.23 512-512 512s-512-229.23-512-512v0zM512 921.6c226.216 0 409.6-183.384 409.6-409.6s-183.384-409.6-409.6-409.6v0c-226.216 0-409.6 183.384-409.6 409.6s183.384 409.6 409.6 409.6v0zM547.84 381.952l181.76 181.248-72.192 72.192-145.408-143.872-144.896 143.36-72.192-71.68 217.088-217.088 35.84 35.84z" /></g></svg>