<?xml version="1.0" encoding="utf-8"?><!DOCTYPE svg PUBLIC "-//W3C//DTD SVG 1.1//EN" "http://www.w3.org/Graphics/SVG/1.1/DTD/svg11.dtd"><svg version="1.1" xmlns="http://www.w3.org/2000/svg" xmlns:xlink="http://www.w3.org/1999/xlink" width="32" height="32" viewBox="0 0 32 32" data-tags="topcoder"><g fill="#444" transform="scale(0.03125 0.03125)"><path fill="rgb(41, 168, 224)" d="M875.264 704.725c8.192-1.109 16.043-4.779 23.125-8.96 14.72-8.576 27.563-20.181 39.936-32 9.643-9.131 18.944-18.603 27.861-28.587 5.12-6.229 10.923-12.629 16.043-19.243 4.48-6.101 8.96-12.16 13.44-18.603 3.243-4.907 6.4-9.813 9.045-14.933 14.080-25.515 25.643-57.003 15.403-86.016-1.323-4.011-3.243-7.893-5.163-11.52-3.883-6.571-9.003-12.416-14.123-17.621-8.96-8.576-19.968-15.36-30.848-20.864-16.043-8.021-33.323-13.355-51.243-17.323-25.728-5.845-51.413-8.576-77.696-9.643-35.925-1.749-71.851-0.256-107.179 3.243 4.48 4.651 8.363 9.6 12.843 14.421 8.32 9.643 16.725 19.925 24.363 30.848 9.685 12.8 18.645 26.923 27.605 41.045 25.685 42.325 44.971 88.533 59.008 135.381 4.48 14.080 7.765 28.245 10.88 43.008 1.323 5.12 2.048 10.923 3.285 16.683zM82.304 698.283c2.219-8.704 4.48-17.579 6.827-26.283 3.413-12.843 7.509-25.6 11.349-38.229 2.944-9.259 6.4-18.304 9.685-27.52 3.84-9.6 7.893-19.2 11.819-28.843 1.408-3.243 2.603-6.528 4.181-9.813 4.352-9.173 9.003-18.219 13.739-27.179 5.76-10.325 10.923-20.523 16.683-30.165 7.68-13.483 16.085-25.685 25.003-37.888l0.683-0.64c-14.123-0.683-28.885-0.683-43.008-0.683-10.24 0-21.163 0.683-31.403 1.92-7.083 0.683-14.080 1.323-21.163 2.603-5.163 0.683-10.24 1.92-15.403 3.2-25.003 6.4-53.248 17.963-65.408 42.965-1.323 3.243-2.603 6.443-3.883 10.325-1.365 5.12-2.005 11.52-2.005 17.323 0 9.003 1.92 17.963 3.797 26.965 3.883 13.44 10.325 26.325 16.768 38.485 12.16 21.163 27.563 41.045 43.605 59.648l20.523 22.4zM856.747 696.363c-20.992-98.219-65.963-193.365-136.277-266.069l-3.541-3.669-1.749-1.707c-8.533 0.597-17.024 1.92-25.728 3.157-91.904 14.165-181.76 39.168-268.16 73.173 7.168 1.92 14.336 3.84 21.632 6.4 30.123 9.643 60.288 19.883 89.941 30.848 103.296 38.485 202.88 86.571 298.581 141.739l25.003 14.805zM101.291 690.432l37.248-35.968c6.4-6.101 6.4-6.059 12.843-11.947 65.408-57.771 141.568-101.333 221.013-137.259-11.733-3.243-23.424-5.803-35.157-8.32-44.928-10.283-90.155-18.645-136.021-22.485-3.584 5.163-7.083 9.685-10.539 14.763-7.723 11.563-15.104 22.485-22.059 34.688-6.4 10.24-11.563 20.523-16.725 30.848-4.437 8.32-8.96 16.683-12.203 25.003-1.237 1.92-1.92 4.48-2.56 6.4-3.883 9.643-8.32 19.243-12.203 28.885-3.157 7.723-5.76 15.36-8.32 23.083-3.84 12.203-7.68 23.765-10.88 35.968-1.963 6.4-3.883 12.843-5.12 19.2zM396.288 494.72c8.96-3.883 17.792-7.467 26.795-10.88 9.941-4.011 19.883-7.765 29.867-11.477 43.648-16.043 87.936-29.525 132.821-40.405 37.248-9.003 74.411-16.043 112.341-21.803l2.56-0.683c-10.283-9.643-21.163-17.963-32.085-26.325-20.523-15.36-42.965-28.245-66.688-38.485-55.253-23.723-116.181-31.403-175.147-20.48-32.128 5.717-63.616 16.64-92.459 32.085-45.525 24.363-85.333 59.008-118.101 98.773l-1.28 0.683 19.883 1.877 24.405 3.243c34.688 5.76 68.011 12.843 102.016 20.48 12.843 3.243 25.045 6.443 37.248 9.685z" /></g></svg>