<?xml version="1.0" encoding="utf-8"?><!DOCTYPE svg PUBLIC "-//W3C//DTD SVG 1.1//EN" "http://www.w3.org/Graphics/SVG/1.1/DTD/svg11.dtd"><svg version="1.1" xmlns="http://www.w3.org/2000/svg" xmlns:xlink="http://www.w3.org/1999/xlink" width="24" height="24" viewBox="0 0 24 24" data-tags="thumbs_up_down"><g fill="#444" transform="scale(0.0234375 0.0234375)"><path d="M960 426q28 0 46 19t18 45v278q0 28-18 46l-212 210-34-34q-14-14-14-34 6-28 17-80t13-66h-222q-18 0-30-12t-12-30v-54q0-6 4-22l98-226q18-40 58-40h288zM512 256v54q0 6-4 22l-98 226q-18 40-58 40h-288q-28 0-46-19t-18-45v-278q0-28 18-46l212-210 34 34q14 14 14 34-6 28-17 80t-13 66h222q18 0 30 12t12 30z" /></g></svg>