<?xml version="1.0" encoding="utf-8"?><!DOCTYPE svg PUBLIC "-//W3C//DTD SVG 1.1//EN" "http://www.w3.org/Graphics/SVG/1.1/DTD/svg11.dtd"><svg version="1.1" xmlns="http://www.w3.org/2000/svg" xmlns:xlink="http://www.w3.org/1999/xlink" width="24" height="24" viewBox="0 0 24 24" data-tags="desktop_access_disabled"><g fill="#444" transform="scale(0.0234375 0.0234375)"><path d="M128 682h422l-422-422v422zM636 768h-38v86h84v84h-340v-84h84v-86h-298q-34 0-60-26t-26-60v-508l-42-42 52-56q48 48 304 302t390 390l202 200-56 56zM982 682q0 34-26 60t-60 26h-42l-86-86h128v-512h-640l-86-84h726q34 0 60 25t26 59v512z" /></g></svg>